<svg width="2000" height="2000" viewBox="0 0 2000 2000" fill="none" xmlns="http://www.w3.org/2000/svg">
<path d="M0 0H2000V1730C2000 1879.12 1879.12 2000 1730 2000H0V0Z" fill="#3F68D2"/>
<path d="M1326.92 1115.67C1305.68 1115.67 1287.19 1107.53 1271.45 1091.25C1256.5 1074.98 1249.03 1055.61 1249.03 1033.13V659.974C1249.03 636.724 1256.5 616.962 1271.45 600.687C1286.4 584.412 1304.89 576.275 1326.92 576.275C1348.96 576.275 1367.45 584.412 1382.4 600.687C1397.34 616.962 1404.82 636.724 1404.82 659.974L1406 1033.13C1406 1055.61 1398.13 1074.98 1382.4 1091.25C1367.45 1107.53 1348.96 1115.67 1326.92 1115.67ZM1342.27 1410.94C1324.96 1423.34 1307.65 1429.54 1290.34 1429.54C1266.73 1429.54 1243.91 1417.91 1221.88 1394.66L876.076 833.184C848.537 788.234 823.752 765.76 801.721 765.76C774.182 765.76 760.806 799.859 761.593 868.058V1356.3C761.593 1412.1 734.448 1440 680.157 1440C654.979 1440 634.128 1432.64 617.605 1417.91C601.868 1402.41 594 1381.88 594 1356.3V747.16C594 691.361 616.818 645.249 662.453 608.824C703.368 576.275 750.971 560 805.262 560C867.421 560 911.876 581.7 938.628 625.099L1356.43 1285.39C1369.81 1306.31 1376.49 1326.46 1376.49 1345.84C1376.49 1372.19 1365.09 1393.89 1342.27 1410.94Z" fill="white"/>
</svg>
