<svg width="101" height="101" viewBox="0 0 101 101" fill="none" xmlns="http://www.w3.org/2000/svg">
<path d="M0 0H101V71C101 87.5685 87.5685 101 71 101H0V0Z" fill="#3F68D2"/>
<path d="M60.1628 53.9174C59.5349 53.9174 58.9884 53.677 58.5233 53.1962C58.0814 52.7153 57.8605 52.1429 57.8605 51.4789V40.4538C57.8605 39.7668 58.0814 39.183 58.5233 38.7021C58.9651 38.2213 59.5116 37.9808 60.1628 37.9808C60.814 37.9808 61.3605 38.2213 61.8023 38.7021C62.2442 39.183 62.4651 39.7668 62.4651 40.4538L62.5 51.4789C62.5 52.1429 62.2674 52.7153 61.8023 53.1962C61.3605 53.677 60.814 53.9174 60.1628 53.9174ZM60.6163 62.6413C60.1047 63.0077 59.593 63.1909 59.0814 63.1909C58.3837 63.1909 57.7093 62.8474 57.0581 62.1605L46.8372 45.5713C46.0233 44.2433 45.2907 43.5793 44.6395 43.5793C43.8256 43.5793 43.4302 44.5867 43.4535 46.6017V61.0271C43.4535 62.6757 42.6512 63.5 41.0465 63.5C40.3023 63.5 39.686 63.2825 39.1977 62.8474C38.7326 62.3895 38.5 61.7827 38.5 61.0271V43.0297C38.5 41.3811 39.1744 40.0187 40.5233 38.9425C41.7326 37.9808 43.1395 37.5 44.7442 37.5C46.5814 37.5 47.8954 38.1411 48.686 39.4234L61.0349 58.932C61.4302 59.5502 61.6279 60.1455 61.6279 60.718C61.6279 61.4965 61.2907 62.1376 60.6163 62.6413Z" fill="white"/>
</svg>
